<svg xmlns="http://www.w3.org/2000/svg" viewBox="0 0 64 64" fill="currentColor" aria-hidden="true">
  <!-- HEART (between the two hands, slightly tilted to the right) -->
  <path d="M30.6 22.8c-1.6-1.9-4.4-2.1-6.1-.4c-1.7 1.7-1.7 4.5 0 6.2l5.9 6c.6.6 1.6.6 2.2 0l6-6c1.7-1.7 1.7-4.5 0-6.2c-1.7-1.7-4.5-1.5-6.1.4l-.9 1.1l-1-1.1z"/>

  <!-- UPPER HAND — coming from top-left, pinching/giving the heart, fingers extended toward heart -->
  <!-- sleeve cuff (top-left) -->
  <path d="M3 10.2l5.7-5.7c.6-.6 1.5-.6 2.1 0l4.6 4.6c.6.6.6 1.5 0 2.1l-5.7 5.7c-.6.6-1.5.6-2.1 0L3 12.3c-.6-.6-.6-1.5 0-2.1z"/>
  <!-- upper hand body — palm facing down/right, fingers reaching to heart -->
  <path d="M9.4 17.4c.4-.4 1-.5 1.5-.4l4.5 1.2l5.6-1.9c.6-.2 1.3-.2 1.9.1l5.9 2.9c1 .5 1.4 1.7.9 2.7l-.1.1c-.5.9-1.6 1.3-2.6.9l-3.6-1.5l-.3 1.5c-.2 1-.9 1.7-1.9 1.9l-2 .5l-1.4 1.4c-.4.4-.9.6-1.5.6h-3.7c-.7 0-1.3-.3-1.7-.8l-3.6-4.6c-.5-.7-.5-1.6.1-2.2l1-1z"/>

  <!-- LOWER HAND — coming from bottom-right, palm cupped upward to receive -->
  <!-- sleeve cuff (bottom-right) -->
  <path d="M61 53.8l-5.7 5.7c-.6.6-1.5.6-2.1 0l-4.6-4.6c-.6-.6-.6-1.5 0-2.1l5.7-5.7c.6-.6 1.5-.6 2.1 0l4.6 4.6c.6.6.6 1.5 0 2.1z"/>
  <!-- lower hand body — palm facing up/left, fingers curved upward -->
  <path d="M54.6 46.6c-.4.4-1 .5-1.5.4l-4.5-1.2l-5.6 1.9c-.6.2-1.3.2-1.9-.1l-5.9-2.9c-1-.5-1.4-1.7-.9-2.7l.1-.1c.5-.9 1.6-1.3 2.6-.9l3.6 1.5l.3-1.5c.2-1 .9-1.7 1.9-1.9l2-.5l1.4-1.4c.4-.4.9-.6 1.5-.6h3.7c.7 0 1.3.3 1.7.8l3.6 4.6c.5.7.5 1.6-.1 2.2l-1 1z"/>
</svg>
