<svg xmlns="http://www.w3.org/2000/svg" viewBox="0 0 374 254" preserveAspectRatio="xMidYMid meet">
  <g transform="translate(-57,-1)"><g transform="translate(0,240) scale(0.1,-0.1)" fill="currentColor">
    <path d="M2335 2074 c-613 -46 -1011 -194 -1198 -447 -72 -96 -117 -270 -83 -321 l16 -26 658 0 658 0 22 45 c12 25 22 48 22 50 0 3 -285 5 -634 5 -349 0 -637 4 -640 8 -17 28 39 144 105 217 134 145 324 230 709 315 189 42 699 65 892 41 40 -5 116 -15 168 -21 367 -46 688 -176 829 -336 44 -50 98 -152 103 -194 l3 -25 -662 -3 -663 -2 0 -25 c0 -13 5 -36 12 -50 l11 -25 669 0 668 0 0 161 0 160 -29 42 c-143 203 -522 362 -996 418 -92 10 -549 20 -640 13z"/>
    <path d="M2545 1392 c-71 -59 -91 -121 -74 -234 14 -88 6 -108 -42 -108 -16 0 -29 1 -29 3 0 1 -6 20 -14 41 l-14 39 -26 -40 c-87 -131 -51 -309 75 -373 51 -27 60 -25 43 8 -18 34 -18 83 0 126 11 27 102 156 110 156 1 0 2 -24 2 -54 -1 -49 2 -57 42 -99 44 -49 55 -94 32 -138 -27 -50 84 12 123 69 64 92 60 234 -9 318 l-23 29 -1 -43 c0 -24 -8 -57 -17 -75 l-17 -32 -7 52 c-7 52 -47 135 -97 202 -20 27 -27 51 -31 102 -6 66 -6 67 -26 51z"/>
    <path d="M1010 1174 c-151 -66 -166 -291 -25 -379 l48 -30 618 -3 618 -3 -23 53 -23 53 -584 5 c-321 3 -592 9 -602 14 -42 20 -59 95 -32 146 32 61 17 60 662 61 l588 0 32 50 31 49 -636 0 c-546 -1 -642 -3 -672 -16z"/>
    <path d="M2807 1178 c5 -7 19 -30 32 -50 l23 -38 569 0 569 0 0 50 0 50 -600 0 c-479 0 -599 -3 -593 -12z"/>
    <path d="M2875 823 c-11 -26 -21 -51 -23 -55 -2 -4 255 -8 572 -8 l576 0 0 55 0 55 -552 0 -553 0 -20 -47z"/>
    <path d="M1059 659 c-24 -24 -22 -90 5 -180 40 -133 163 -254 295 -293 78 -23 2328 -24 2402 -2 72 22 103 41 174 107 l65 61 0 164 0 164 -1460 0 -1460 0 -21 -21z m2911 -94 c0 -59 -96 -200 -163 -239 -99 -58 -46 -56 -1248 -56 -1086 0 -1107 0 -1165 20 -109 38 -201 124 -224 211 -6 22 -14 47 -17 55 -4 12 183 14 1406 14 776 0 1411 -2 1411 -5z"/>
  </g></g>
</svg>
